%
M48
M72
T01C0.0236
T02C0.0276
T03C0.0315
T04C0.0320
T05C0.0400
T06C0.0748
%
T01
X1681Y2181
X2181Y3681
X2181Y6181
X3681Y8681
X2681Y9681
X9181Y10181
X10181Y11181
X12181Y9681
X15181Y10681
X15681Y12681
X15681Y15681
X17681Y16181
X17681Y17181
X15681Y19181
X12681Y18681
X12181Y16681
X12181Y16181
X12181Y15181
X11681Y14681
X10181Y15681
X9681Y14681
X15181Y8181
X17181Y7681
X17181Y8681
X17181Y5681
X17181Y4681
X13181Y4181
X13181Y3181
X12181Y1681
X12181Y5181
X7181Y2681
X6181Y2181
T02
X14181Y6681
X14181Y7681
X11181Y17181
X11181Y18181
T03
X3161Y18041
X3781Y18351
X3781Y17681
X3781Y16981
X3161Y17351
X4681Y7181
X4681Y6181
X4681Y5181
X14181Y5181
X14181Y3181
X16681Y16181
X16681Y18181
T04
X5181Y15681
X6181Y15681
X6181Y13681
X5181Y13681
X8181Y13181
X8181Y12181
X8181Y11181
X8181Y10181
X8181Y9181
X8181Y8181
X8181Y7181
X8181Y6181
X8181Y5181
X8181Y4181
X8181Y3181
X8181Y2181
X8181Y1181
X7181Y1181
X11181Y1181
X11181Y2181
X11181Y3181
X11181Y4181
X11181Y5181
X11181Y6181
X11181Y7181
X11181Y8181
X11181Y9181
X11181Y10181
X11181Y11181
X11181Y12181
X11181Y13181
X11181Y14181
X13181Y14181
X13181Y11681
X13181Y9181
X16181Y7681
X18181Y9181
X18181Y11681
X18181Y14181
X14681Y18181
X13681Y18181
X8181Y14181
X5681Y17681
X5681Y18681
X16181Y2681
X16181Y1181
X17181Y1181
X14681Y1181
X13681Y1181
X2181Y1181
T05
X681Y1181
X681Y2181
X681Y3181
X681Y4181
X681Y6181
X681Y7181
X681Y8181
X681Y9181
X681Y11181
X681Y12181
X681Y13181
X681Y14181
X8681Y16181
X8681Y17181
X8681Y18181
X19181Y18181
X19181Y17181
X19181Y16181
X19181Y15181
X19181Y19181
X19181Y9181
X19181Y8181
X19181Y7181
X19181Y6181
X19181Y4181
X19181Y3181
X19181Y2181
X19181Y1181
T06
X1681Y16244
X1681Y19118
M30
