G75*
G70*
%OFA0B0*%
%FSLAX24Y24*%
%IPPOS*%
%LPD*%
%AMOC8*
5,1,8,0,0,1.08239X$1,22.5*
%
%ADD10C,0.0000*%
%ADD11C,0.0520*%
%ADD12OC8,0.0520*%
%ADD13R,0.0740X0.0740*%
%ADD14C,0.0740*%
%ADD15R,0.0650X0.0650*%
%ADD16C,0.0650*%
%ADD17C,0.0515*%
%ADD18C,0.1122*%
%ADD19C,0.0600*%
%ADD20OC8,0.0630*%
%ADD21R,0.0515X0.0515*%
%ADD22R,0.0700X0.0700*%
%ADD23C,0.0700*%
%ADD24C,0.0160*%
%ADD25C,0.0356*%
%ADD26R,0.0356X0.0356*%
%ADD27C,0.0120*%
D10*
X000181Y000181D02*
X000181Y019866D01*
X019866Y019866D01*
X019866Y000181D01*
X000181Y000181D01*
D11*
X007921Y001181D02*
X008441Y001181D01*
X008441Y002181D02*
X007921Y002181D01*
X007921Y003181D02*
X008441Y003181D01*
X008441Y004181D02*
X007921Y004181D01*
X007921Y005181D02*
X008441Y005181D01*
X008441Y006181D02*
X007921Y006181D01*
X007921Y007181D02*
X008441Y007181D01*
X008441Y008181D02*
X007921Y008181D01*
X007921Y009181D02*
X008441Y009181D01*
X008441Y010181D02*
X007921Y010181D01*
X007921Y011181D02*
X008441Y011181D01*
X008441Y012181D02*
X007921Y012181D01*
X007921Y013181D02*
X008441Y013181D01*
X008441Y014181D02*
X007921Y014181D01*
X010921Y014181D02*
X011441Y014181D01*
X011441Y013181D02*
X010921Y013181D01*
X010921Y012181D02*
X011441Y012181D01*
X011441Y011181D02*
X010921Y011181D01*
X010921Y010181D02*
X011441Y010181D01*
X011441Y009181D02*
X010921Y009181D01*
X010921Y008181D02*
X011441Y008181D01*
X011441Y007181D02*
X010921Y007181D01*
X010921Y006181D02*
X011441Y006181D01*
X011441Y005181D02*
X010921Y005181D01*
X010921Y004181D02*
X011441Y004181D01*
X011441Y003181D02*
X010921Y003181D01*
X010921Y002181D02*
X011441Y002181D01*
X011441Y001181D02*
X010921Y001181D01*
D12*
X013681Y001181D03*
X014681Y001181D03*
X016181Y001181D03*
X017181Y001181D03*
X016181Y002681D03*
X016181Y007681D03*
X018181Y009181D03*
X018181Y011681D03*
X018181Y014181D03*
X014681Y018181D03*
X013681Y018181D03*
X013181Y014181D03*
X013181Y011681D03*
X013181Y009181D03*
X007181Y001181D03*
X002181Y001181D03*
D13*
X000681Y004181D03*
X000681Y009181D03*
X000681Y014181D03*
X019181Y015181D03*
X019181Y009181D03*
X019181Y004181D03*
D14*
X019181Y003181D03*
X019181Y002181D03*
X019181Y001181D03*
X019181Y006181D03*
X019181Y007181D03*
X019181Y008181D03*
X019181Y016181D03*
X019181Y017181D03*
X019181Y018181D03*
X019181Y019181D03*
X000681Y013181D03*
X000681Y012181D03*
X000681Y011181D03*
X000681Y008181D03*
X000681Y007181D03*
X000681Y006181D03*
X000681Y003181D03*
X000681Y002181D03*
X000681Y001181D03*
D15*
X014181Y007681D03*
X011181Y017181D03*
D16*
X011181Y018181D03*
X014181Y006681D03*
D17*
X004681Y006181D03*
X004681Y005181D03*
X003781Y016981D03*
X003781Y017681D03*
X003781Y018351D03*
X003161Y018041D03*
X003161Y017351D03*
D18*
X001681Y016244D03*
X001681Y019118D03*
D19*
X008381Y018181D02*
X008981Y018181D01*
X008981Y017181D02*
X008381Y017181D01*
X008381Y016181D02*
X008981Y016181D01*
D20*
X006181Y015681D03*
X005181Y015681D03*
X005181Y013681D03*
X006181Y013681D03*
X005681Y017681D03*
X005681Y018681D03*
D21*
X004681Y007181D03*
D22*
X014181Y003181D03*
X016681Y018181D03*
D23*
X016681Y016181D03*
X014181Y005181D03*
D24*
X012181Y005181D01*
X011890Y004938D02*
X011808Y004938D01*
X011818Y004951D02*
X011845Y005005D01*
X011861Y004967D01*
X011967Y004861D01*
X012106Y004803D01*
X012257Y004803D01*
X012396Y004861D01*
X012436Y004901D01*
X012506Y004901D01*
X012444Y004840D01*
X012065Y004461D01*
X011812Y004461D01*
X011702Y004571D01*
X011533Y004641D01*
X010830Y004641D01*
X010661Y004571D01*
X010531Y004442D01*
X010461Y004273D01*
X010461Y004090D01*
X010531Y003921D01*
X010661Y003791D01*
X010830Y003721D01*
X011533Y003721D01*
X011702Y003791D01*
X011812Y003901D01*
X012126Y003901D01*
X012237Y003901D01*
X012340Y003944D01*
X012797Y004401D01*
X012867Y004401D01*
X012861Y004396D01*
X012803Y004257D01*
X012803Y004106D01*
X012861Y003967D01*
X012967Y003861D01*
X013106Y003803D01*
X013257Y003803D01*
X013396Y003861D01*
X013436Y003901D01*
X018611Y003901D01*
X018611Y003729D01*
X018729Y003611D01*
X018805Y003611D01*
X018698Y003504D01*
X018611Y003295D01*
X018611Y003068D01*
X018629Y003025D01*
X018065Y002461D01*
X016612Y002461D01*
X016641Y002491D01*
X016641Y002872D01*
X016372Y003141D01*
X015991Y003141D01*
X015721Y002872D01*
X015721Y002491D01*
X015751Y002461D01*
X011812Y002461D01*
X011702Y002571D01*
X011533Y002641D01*
X010830Y002641D01*
X010661Y002571D01*
X010531Y002442D01*
X010461Y002273D01*
X010461Y002090D01*
X010531Y001921D01*
X010661Y001791D01*
X010830Y001721D01*
X011533Y001721D01*
X011702Y001791D01*
X011812Y001901D01*
X011867Y001901D01*
X011861Y001896D01*
X011803Y001757D01*
X011803Y001606D01*
X011861Y001467D01*
X011967Y001361D01*
X012106Y001303D01*
X012257Y001303D01*
X012396Y001361D01*
X012436Y001401D01*
X013251Y001401D01*
X013221Y001372D01*
X013221Y001117D01*
X013065Y000961D01*
X011848Y000961D01*
X011901Y001090D01*
X011901Y001273D01*
X011831Y001442D01*
X011702Y001571D01*
X011533Y001641D01*
X010830Y001641D01*
X010661Y001571D01*
X010531Y001442D01*
X010461Y001273D01*
X010461Y001090D01*
X010515Y000961D01*
X008848Y000961D01*
X008901Y001090D01*
X008901Y001273D01*
X008831Y001442D01*
X008702Y001571D01*
X008533Y001641D01*
X007830Y001641D01*
X007661Y001571D01*
X007551Y001462D01*
X007372Y001641D01*
X006991Y001641D01*
X006721Y001372D01*
X006721Y000991D01*
X006991Y000721D01*
X007245Y000721D01*
X007444Y000523D01*
X007523Y000444D01*
X007626Y000401D01*
X013126Y000401D01*
X013237Y000401D01*
X013340Y000444D01*
X013617Y000721D01*
X013872Y000721D01*
X014141Y000991D01*
X014141Y001372D01*
X014112Y001401D01*
X014279Y001401D01*
X014241Y001364D01*
X014241Y001182D01*
X014681Y001182D01*
X014681Y001181D01*
X014682Y001181D01*
X014682Y001182D01*
X015121Y001182D01*
X015121Y001364D01*
X015084Y001401D01*
X015751Y001401D01*
X015721Y001372D01*
X015721Y000991D01*
X015991Y000721D01*
X016372Y000721D01*
X016641Y000991D01*
X016641Y001372D01*
X016612Y001401D01*
X016779Y001401D01*
X016741Y001364D01*
X016741Y001182D01*
X017181Y001182D01*
X017181Y001181D01*
X017182Y001181D01*
X017182Y001182D01*
X017621Y001182D01*
X017621Y001364D01*
X017584Y001401D01*
X018565Y001401D01*
X018629Y001338D01*
X018611Y001295D01*
X018611Y001068D01*
X018698Y000859D01*
X018859Y000698D01*
X019068Y000611D01*
X019295Y000611D01*
X019504Y000698D01*
X019665Y000859D01*
X019666Y000863D01*
X019666Y000381D01*
X000381Y000381D01*
X000381Y000689D01*
X000568Y000611D01*
X000795Y000611D01*
X001004Y000698D01*
X001165Y000859D01*
X001182Y000901D01*
X001811Y000901D01*
X001991Y000721D01*
X002372Y000721D01*
X002641Y000991D01*
X002641Y001372D01*
X002461Y001552D01*
X002461Y001565D01*
X002797Y001901D01*
X005822Y001901D01*
X005920Y001803D01*
X006442Y001803D01*
X006540Y001901D01*
X007551Y001901D01*
X007661Y001791D01*
X007830Y001721D01*
X008533Y001721D01*
X008702Y001791D01*
X008831Y001921D01*
X008901Y002090D01*
X008901Y002273D01*
X008831Y002442D01*
X008702Y002571D01*
X008533Y002641D01*
X007830Y002641D01*
X007661Y002571D01*
X007551Y002461D01*
X007496Y002461D01*
X007502Y002467D01*
X007559Y002606D01*
X007559Y002757D01*
X007502Y002896D01*
X007496Y002901D01*
X007551Y002901D01*
X007661Y002791D01*
X007830Y002721D01*
X008533Y002721D01*
X008702Y002791D01*
X008831Y002921D01*
X008901Y003090D01*
X008901Y003273D01*
X008831Y003442D01*
X008702Y003571D01*
X008533Y003641D01*
X007830Y003641D01*
X007661Y003571D01*
X007551Y003461D01*
X006857Y003461D01*
X007297Y003901D01*
X007551Y003901D01*
X007661Y003791D01*
X007830Y003721D01*
X008533Y003721D01*
X008702Y003791D01*
X008831Y003921D01*
X008901Y004090D01*
X008901Y004273D01*
X008831Y004442D01*
X008702Y004571D01*
X008533Y004641D01*
X007830Y004641D01*
X007661Y004571D01*
X007551Y004461D01*
X007126Y004461D01*
X007023Y004419D01*
X006944Y004340D01*
X006565Y003961D01*
X002436Y003961D01*
X002396Y004002D01*
X002257Y004059D01*
X002106Y004059D01*
X001967Y004002D01*
X001861Y003896D01*
X001803Y003757D01*
X001803Y003606D01*
X001861Y003467D01*
X001867Y003461D01*
X001797Y003461D01*
X001251Y004007D01*
X001251Y004634D01*
X001134Y004751D01*
X000381Y004751D01*
X000381Y005689D01*
X000568Y005611D01*
X000795Y005611D01*
X001004Y005698D01*
X001165Y005859D01*
X001182Y005901D01*
X001927Y005901D01*
X001967Y005861D01*
X002106Y005803D01*
X002257Y005803D01*
X002396Y005861D01*
X002502Y005967D01*
X002559Y006106D01*
X002559Y006257D01*
X002502Y006396D01*
X002396Y006502D01*
X002257Y006559D01*
X002106Y006559D01*
X001967Y006502D01*
X001927Y006461D01*
X001182Y006461D01*
X001165Y006504D01*
X001004Y006665D01*
X000964Y006681D01*
X001004Y006698D01*
X001165Y006859D01*
X001182Y006901D01*
X002626Y006901D01*
X002737Y006901D01*
X002840Y006944D01*
X003797Y007901D01*
X007551Y007901D01*
X007661Y007791D01*
X007830Y007721D01*
X008533Y007721D01*
X008702Y007791D01*
X008831Y007921D01*
X008901Y008090D01*
X008901Y008273D01*
X008848Y008401D01*
X009565Y008401D01*
X010530Y007437D01*
X010461Y007273D01*
X010461Y007090D01*
X010531Y006921D01*
X010661Y006791D01*
X010830Y006721D01*
X011326Y006721D01*
X011245Y006641D01*
X010830Y006641D01*
X010661Y006571D01*
X010531Y006442D01*
X010461Y006273D01*
X010461Y006090D01*
X010531Y005921D01*
X010661Y005791D01*
X010830Y005721D01*
X011533Y005721D01*
X011702Y005791D01*
X011831Y005921D01*
X011901Y006090D01*
X011901Y006273D01*
X011848Y006401D01*
X013126Y006401D01*
X013237Y006401D01*
X013340Y006444D01*
X013688Y006792D01*
X013676Y006721D01*
X013676Y006682D01*
X013578Y006682D01*
X013676Y006681D02*
X013676Y006642D01*
X013689Y006563D01*
X013713Y006488D01*
X013749Y006417D01*
X013796Y006352D01*
X013852Y006296D01*
X013917Y006249D01*
X013988Y006213D01*
X014063Y006189D01*
X014142Y006176D01*
X014181Y006176D01*
X014181Y006681D01*
X014182Y006681D01*
X014182Y006682D01*
X014686Y006682D01*
X018286Y006682D01*
X018444Y006840D02*
X014661Y006840D01*
X014649Y006875D02*
X014613Y006946D01*
X014567Y007010D01*
X014510Y007067D01*
X014446Y007113D01*
X014375Y007149D01*
X014353Y007156D01*
X014589Y007156D01*
X014706Y007274D01*
X014706Y008089D01*
X014589Y008206D01*
X013774Y008206D01*
X013656Y008089D01*
X013656Y007552D01*
X013065Y006961D01*
X011848Y006961D01*
X011901Y007090D01*
X011901Y007273D01*
X011831Y007442D01*
X011702Y007571D01*
X011533Y007641D01*
X011117Y007641D01*
X011037Y007721D01*
X011533Y007721D01*
X011702Y007791D01*
X011831Y007921D01*
X011901Y008090D01*
X011901Y008273D01*
X011831Y008442D01*
X011702Y008571D01*
X011533Y008641D01*
X011089Y008641D01*
X011009Y008721D01*
X011533Y008721D01*
X011702Y008791D01*
X011812Y008901D01*
X012811Y008901D01*
X012991Y008721D01*
X013372Y008721D01*
X013641Y008991D01*
X013641Y009372D01*
X013372Y009641D01*
X013089Y009641D01*
X012829Y009902D01*
X012733Y009941D01*
X012630Y009941D01*
X012456Y009941D01*
X012396Y010002D01*
X012257Y010059D01*
X012106Y010059D01*
X011967Y010002D01*
X011861Y009896D01*
X011803Y009757D01*
X011803Y009606D01*
X011861Y009467D01*
X011867Y009461D01*
X011812Y009461D01*
X011702Y009571D01*
X011533Y009641D01*
X010830Y009641D01*
X010661Y009571D01*
X010531Y009442D01*
X010461Y009273D01*
X010461Y009269D01*
X009829Y009902D01*
X009733Y009941D01*
X009630Y009941D01*
X009476Y009941D01*
X009502Y009967D01*
X009559Y010106D01*
X009559Y010257D01*
X009502Y010396D01*
X009396Y010502D01*
X009257Y010559D01*
X009106Y010559D01*
X008967Y010502D01*
X008927Y010461D01*
X008812Y010461D01*
X008702Y010571D01*
X008533Y010641D01*
X007830Y010641D01*
X007661Y010571D01*
X007551Y010461D01*
X002626Y010461D01*
X002523Y010419D01*
X002444Y010340D01*
X001565Y009461D01*
X001251Y009461D01*
X001251Y009634D01*
X001134Y009751D01*
X000381Y009751D01*
X000381Y010689D01*
X000568Y010611D01*
X000795Y010611D01*
X001004Y010698D01*
X001165Y010859D01*
X001182Y010901D01*
X007551Y010901D01*
X007661Y010791D01*
X007830Y010721D01*
X008533Y010721D01*
X008702Y010791D01*
X008812Y010901D01*
X009927Y010901D01*
X009967Y010861D01*
X010106Y010803D01*
X010257Y010803D01*
X010396Y010861D01*
X010502Y010967D01*
X010507Y010980D01*
X010531Y010921D01*
X010661Y010791D01*
X010830Y010721D01*
X011245Y010721D01*
X011326Y010641D01*
X010830Y010641D01*
X010661Y010571D01*
X010531Y010442D01*
X010461Y010273D01*
X010461Y010090D01*
X010531Y009921D01*
X010661Y009791D01*
X010830Y009721D01*
X011533Y009721D01*
X011702Y009791D01*
X011831Y009921D01*
X011901Y010090D01*
X011901Y010273D01*
X011848Y010401D01*
X014927Y010401D01*
X014967Y010361D01*
X015106Y010303D01*
X015257Y010303D01*
X015396Y010361D01*
X015502Y010467D01*
X015559Y010606D01*
X015559Y010757D01*
X015502Y010896D01*
X015396Y011002D01*
X015257Y011059D01*
X015106Y011059D01*
X014967Y011002D01*
X014927Y010961D01*
X011848Y010961D01*
X011901Y011090D01*
X011901Y011273D01*
X011831Y011442D01*
X011702Y011571D01*
X011533Y011641D01*
X010830Y011641D01*
X010661Y011571D01*
X010531Y011442D01*
X010507Y011383D01*
X010502Y011396D01*
X010396Y011502D01*
X010257Y011559D01*
X010106Y011559D01*
X009967Y011502D01*
X009927Y011461D01*
X008812Y011461D01*
X008702Y011571D01*
X008533Y011641D01*
X007830Y011641D01*
X007661Y011571D01*
X007551Y011461D01*
X001182Y011461D01*
X001165Y011504D01*
X001004Y011665D01*
X000964Y011681D01*
X001004Y011698D01*
X001165Y011859D01*
X001182Y011901D01*
X007551Y011901D01*
X007661Y011791D01*
X007830Y011721D01*
X008533Y011721D01*
X008702Y011791D01*
X008831Y011921D01*
X008901Y012090D01*
X008901Y012273D01*
X008831Y012442D01*
X008702Y012571D01*
X008533Y012641D01*
X008037Y012641D01*
X008117Y012721D01*
X008533Y012721D01*
X008702Y012791D01*
X008831Y012921D01*
X008901Y013090D01*
X008901Y013273D01*
X008831Y013442D01*
X008702Y013571D01*
X008533Y013641D01*
X007830Y013641D01*
X007661Y013571D01*
X007531Y013442D01*
X007461Y013273D01*
X007461Y013090D01*
X007515Y012961D01*
X003797Y012961D01*
X003340Y013419D01*
X003237Y013461D01*
X003126Y013461D01*
X001182Y013461D01*
X001165Y013504D01*
X001057Y013611D01*
X001134Y013611D01*
X001251Y013729D01*
X001251Y013901D01*
X002737Y013901D01*
X002840Y013944D01*
X002919Y014023D01*
X003297Y014401D01*
X007515Y014401D01*
X007461Y014273D01*
X007461Y014090D01*
X007531Y013921D01*
X007661Y013791D01*
X007830Y013721D01*
X008533Y013721D01*
X008702Y013791D01*
X008831Y013921D01*
X008901Y014090D01*
X008901Y014273D01*
X008833Y014437D01*
X009317Y014921D01*
X009387Y014921D01*
X009361Y014896D01*
X009303Y014757D01*
X009303Y014606D01*
X009361Y014467D01*
X009467Y014361D01*
X009606Y014303D01*
X009757Y014303D01*
X009896Y014361D01*
X009936Y014401D01*
X010515Y014401D01*
X010461Y014273D01*
X010461Y014090D01*
X010531Y013921D01*
X010661Y013791D01*
X010830Y013721D01*
X011533Y013721D01*
X011702Y013791D01*
X011812Y013901D01*
X012811Y013901D01*
X012991Y013721D01*
X013372Y013721D01*
X013641Y013991D01*
X013641Y014372D01*
X013461Y014552D01*
X013461Y014565D01*
X013797Y014901D01*
X017737Y014901D01*
X017840Y014944D01*
X017919Y015023D01*
X018726Y015830D01*
X018805Y015751D01*
X018729Y015751D01*
X018611Y015634D01*
X018611Y014729D01*
X018729Y014611D01*
X019634Y014611D01*
X019666Y014644D01*
X019666Y009719D01*
X019634Y009751D01*
X018729Y009751D01*
X018611Y009634D01*
X018611Y009402D01*
X018372Y009641D01*
X017991Y009641D01*
X017721Y009372D01*
X017721Y008991D01*
X017771Y008941D01*
X017456Y008941D01*
X017396Y009002D01*
X017257Y009059D01*
X017106Y009059D01*
X016967Y009002D01*
X016861Y008896D01*
X016803Y008757D01*
X016803Y008606D01*
X016861Y008467D01*
X016867Y008461D01*
X015436Y008461D01*
X015396Y008502D01*
X015257Y008559D01*
X015106Y008559D01*
X014967Y008502D01*
X014861Y008396D01*
X014803Y008257D01*
X014803Y008106D01*
X014861Y007967D01*
X014967Y007861D01*
X015106Y007803D01*
X015257Y007803D01*
X015396Y007861D01*
X015436Y007901D01*
X015751Y007901D01*
X015721Y007872D01*
X015721Y007491D01*
X015991Y007221D01*
X016372Y007221D01*
X016572Y007421D01*
X016907Y007421D01*
X016967Y007361D01*
X017106Y007303D01*
X017257Y007303D01*
X017396Y007361D01*
X017502Y007467D01*
X017559Y007606D01*
X017559Y007757D01*
X017502Y007896D01*
X017496Y007901D01*
X018680Y007901D01*
X018698Y007859D01*
X018859Y007698D01*
X018899Y007681D01*
X018859Y007665D01*
X018698Y007504D01*
X018611Y007295D01*
X018611Y007068D01*
X018629Y007025D01*
X018065Y006461D01*
X015126Y006461D01*
X015023Y006419D01*
X014944Y006340D01*
X014322Y005718D01*
X014291Y005731D01*
X014072Y005731D01*
X013870Y005648D01*
X013715Y005493D01*
X013702Y005461D01*
X012436Y005461D01*
X012396Y005502D01*
X012257Y005559D01*
X012106Y005559D01*
X011967Y005502D01*
X011861Y005396D01*
X011845Y005358D01*
X011818Y005412D01*
X011777Y005468D01*
X011728Y005517D01*
X011672Y005558D01*
X011610Y005589D01*
X011544Y005611D01*
X011476Y005621D01*
X011182Y005621D01*
X011182Y005182D01*
X011181Y005182D01*
X011181Y005621D01*
X010887Y005621D01*
X010818Y005611D01*
X010752Y005589D01*
X010691Y005558D01*
X010635Y005517D01*
X010586Y005468D01*
X010545Y005412D01*
X010514Y005350D01*
X010492Y005284D01*
X010481Y005216D01*
X010481Y005182D01*
X011181Y005182D01*
X011181Y005181D01*
X011182Y005181D01*
X011182Y004741D01*
X011476Y004741D01*
X011544Y004752D01*
X011610Y004774D01*
X011672Y004805D01*
X011728Y004846D01*
X011777Y004895D01*
X011818Y004951D01*
X011621Y004779D02*
X012383Y004779D01*
X012225Y004621D02*
X011583Y004621D01*
X011811Y004462D02*
X012066Y004462D01*
X012181Y004181D02*
X012681Y004681D01*
X017181Y004681D01*
X017181Y005681D02*
X018681Y005681D01*
X019181Y006181D01*
X018181Y006181D02*
X019181Y007181D01*
X018611Y007157D02*
X014590Y007157D01*
X014575Y006999D02*
X018603Y006999D01*
X018620Y007316D02*
X017287Y007316D01*
X017076Y007316D02*
X016466Y007316D01*
X015896Y007316D02*
X014706Y007316D01*
X014706Y007474D02*
X015738Y007474D01*
X015721Y007633D02*
X014706Y007633D01*
X014706Y007791D02*
X015721Y007791D01*
X015181Y008181D02*
X019181Y008181D01*
X018827Y007633D02*
X017559Y007633D01*
X017545Y007791D02*
X018765Y007791D01*
X018686Y007474D02*
X017505Y007474D01*
X018127Y006523D02*
X014661Y006523D01*
X014649Y006488D02*
X014674Y006563D01*
X014686Y006642D01*
X014686Y006681D01*
X014182Y006681D01*
X014182Y006176D01*
X014221Y006176D01*
X014300Y006189D01*
X014375Y006213D01*
X014446Y006249D01*
X014510Y006296D01*
X014567Y006352D01*
X014613Y006417D01*
X014649Y006488D01*
X014575Y006365D02*
X014969Y006365D01*
X014810Y006206D02*
X014353Y006206D01*
X014182Y006206D02*
X014181Y006206D01*
X014181Y006365D02*
X014182Y006365D01*
X014181Y006523D02*
X014182Y006523D01*
X014181Y006681D02*
X013676Y006681D01*
X013676Y006682D02*
X014181Y006682D01*
X014181Y006681D01*
X014010Y006206D02*
X011901Y006206D01*
X011884Y006048D02*
X014652Y006048D01*
X014493Y005889D02*
X011799Y005889D01*
X011555Y005730D02*
X014070Y005730D01*
X014293Y005730D02*
X014334Y005730D01*
X013794Y005572D02*
X011644Y005572D01*
X011817Y005413D02*
X011879Y005413D01*
X011182Y005413D02*
X011181Y005413D01*
X011181Y005255D02*
X011182Y005255D01*
X011181Y005181D02*
X010481Y005181D01*
X010481Y005147D01*
X010492Y005078D01*
X010514Y005012D01*
X010545Y004951D01*
X010586Y004895D01*
X010635Y004846D01*
X010691Y004805D01*
X010752Y004774D01*
X010818Y004752D01*
X010887Y004741D01*
X011181Y004741D01*
X011181Y005181D01*
X011181Y005096D02*
X011182Y005096D01*
X011181Y004938D02*
X011182Y004938D01*
X011181Y004779D02*
X011182Y004779D01*
X010780Y004621D02*
X008583Y004621D01*
X008533Y004721D02*
X008702Y004791D01*
X008831Y004921D01*
X008901Y005090D01*
X008901Y005273D01*
X008831Y005442D01*
X008702Y005571D01*
X008533Y005641D01*
X007830Y005641D01*
X007661Y005571D01*
X007551Y005461D01*
X005048Y005461D01*
X004941Y005569D01*
X004772Y005639D01*
X004590Y005639D01*
X004422Y005569D01*
X004294Y005441D01*
X004224Y005272D01*
X004224Y005090D01*
X004294Y004922D01*
X004422Y004794D01*
X004590Y004724D01*
X004772Y004724D01*
X004941Y004794D01*
X005048Y004901D01*
X007551Y004901D01*
X007661Y004791D01*
X007830Y004721D01*
X008533Y004721D01*
X008672Y004779D02*
X010742Y004779D01*
X010555Y004938D02*
X008838Y004938D01*
X008901Y005096D02*
X010489Y005096D01*
X010488Y005255D02*
X008901Y005255D01*
X008843Y005413D02*
X010546Y005413D01*
X010719Y005572D02*
X008701Y005572D01*
X008555Y005730D02*
X010808Y005730D01*
X011181Y005572D02*
X011182Y005572D01*
X011181Y006181D02*
X011681Y006681D01*
X013181Y006681D01*
X014181Y007681D01*
X014706Y007950D02*
X014878Y007950D01*
X014803Y008109D02*
X014687Y008109D01*
X014808Y008267D02*
X011901Y008267D01*
X011901Y008109D02*
X013676Y008109D01*
X013656Y007950D02*
X011843Y007950D01*
X011702Y007791D02*
X013656Y007791D01*
X013656Y007633D02*
X011553Y007633D01*
X011799Y007474D02*
X013578Y007474D01*
X013420Y007316D02*
X011884Y007316D01*
X011901Y007157D02*
X013261Y007157D01*
X013103Y006999D02*
X011864Y006999D01*
X011286Y006682D02*
X007077Y006682D01*
X006919Y006840D02*
X007642Y006840D01*
X007635Y006846D02*
X007691Y006805D01*
X007752Y006774D01*
X007818Y006752D01*
X007887Y006741D01*
X008181Y006741D01*
X008181Y007181D01*
X008182Y007181D01*
X008182Y007182D01*
X008181Y007182D01*
X008181Y007621D01*
X007887Y007621D01*
X007818Y007611D01*
X007752Y007589D01*
X007691Y007558D01*
X007635Y007517D01*
X007586Y007468D01*
X007545Y007412D01*
X007514Y007350D01*
X007492Y007284D01*
X007481Y007216D01*
X007481Y007182D01*
X008181Y007182D01*
X008181Y007181D01*
X007481Y007181D01*
X007481Y007147D01*
X007492Y007078D01*
X007514Y007012D01*
X007545Y006951D01*
X007586Y006895D01*
X007635Y006846D01*
X007521Y006999D02*
X006760Y006999D01*
X006601Y007157D02*
X007481Y007157D01*
X007502Y007316D02*
X006443Y007316D01*
X006340Y007419D02*
X006237Y007461D01*
X006126Y007461D01*
X005139Y007461D01*
X005139Y007522D01*
X005022Y007639D01*
X004341Y007639D01*
X004224Y007522D01*
X004224Y006841D01*
X004341Y006724D01*
X005022Y006724D01*
X005139Y006841D01*
X005139Y006901D01*
X006065Y006901D01*
X006944Y006023D01*
X007023Y005944D01*
X007126Y005901D01*
X007551Y005901D01*
X007661Y005791D01*
X007830Y005721D01*
X008533Y005721D01*
X008702Y005791D01*
X008831Y005921D01*
X008901Y006090D01*
X008901Y006273D01*
X008831Y006442D01*
X008702Y006571D01*
X008533Y006641D01*
X007830Y006641D01*
X007661Y006571D01*
X007551Y006461D01*
X007297Y006461D01*
X006340Y007419D01*
X006181Y007181D02*
X007181Y006181D01*
X008181Y006181D01*
X007808Y005730D02*
X001037Y005730D01*
X001177Y005889D02*
X001939Y005889D01*
X002181Y006181D02*
X000681Y006181D01*
X001146Y006523D02*
X002018Y006523D01*
X002344Y006523D02*
X004408Y006523D01*
X004396Y006515D02*
X004348Y006466D01*
X004307Y006411D01*
X004276Y006349D01*
X004255Y006284D01*
X004244Y006216D01*
X004244Y006182D01*
X004681Y006182D01*
X004681Y006619D01*
X004647Y006619D01*
X004579Y006608D01*
X004513Y006587D01*
X004452Y006556D01*
X004396Y006515D01*
X004284Y006365D02*
X002515Y006365D01*
X002559Y006206D02*
X004244Y006206D01*
X004244Y006181D02*
X004244Y006147D01*
X004255Y006079D01*
X004276Y006013D01*
X004307Y005952D01*
X004348Y005896D01*
X004396Y005848D01*
X004452Y005807D01*
X004513Y005776D01*
X004579Y005755D01*
X004647Y005744D01*
X004681Y005744D01*
X004681Y006181D01*
X004244Y006181D01*
X004265Y006048D02*
X002535Y006048D01*
X002424Y005889D02*
X004355Y005889D01*
X004429Y005572D02*
X000381Y005572D01*
X000381Y005413D02*
X004282Y005413D01*
X004224Y005255D02*
X000381Y005255D01*
X000381Y005096D02*
X004224Y005096D01*
X004287Y004938D02*
X000381Y004938D01*
X000381Y004779D02*
X004457Y004779D01*
X004906Y004779D02*
X007690Y004779D01*
X007780Y004621D02*
X001251Y004621D01*
X001251Y004462D02*
X007552Y004462D01*
X007181Y004181D02*
X008181Y004181D01*
X007624Y003828D02*
X007224Y003828D01*
X007065Y003669D02*
X013715Y003669D01*
X013721Y003675D02*
X013687Y003642D01*
X013664Y003601D01*
X013651Y003555D01*
X013651Y003182D01*
X014181Y003182D01*
X014181Y003711D01*
X013808Y003711D01*
X013762Y003699D01*
X013721Y003675D01*
X013651Y003511D02*
X013374Y003511D01*
X013396Y003502D02*
X013257Y003559D01*
X013106Y003559D01*
X012967Y003502D01*
X012927Y003461D01*
X011812Y003461D01*
X011702Y003571D01*
X011533Y003641D01*
X010830Y003641D01*
X010661Y003571D01*
X010531Y003442D01*
X010461Y003273D01*
X010461Y003090D01*
X010531Y002921D01*
X010661Y002791D01*
X010830Y002721D01*
X011533Y002721D01*
X011702Y002791D01*
X011812Y002901D01*
X012927Y002901D01*
X012967Y002861D01*
X013106Y002803D01*
X013257Y002803D01*
X013396Y002861D01*
X013502Y002967D01*
X013559Y003106D01*
X013559Y003257D01*
X013502Y003396D01*
X013396Y003502D01*
X013520Y003352D02*
X013651Y003352D01*
X013651Y003194D02*
X013559Y003194D01*
X013651Y003181D02*
X013651Y002808D01*
X013664Y002762D01*
X013687Y002721D01*
X013721Y002687D01*
X013762Y002664D01*
X013808Y002651D01*
X014181Y002651D01*
X014181Y003181D01*
X014182Y003181D01*
X014182Y003182D01*
X014181Y003182D01*
X014181Y003181D01*
X013651Y003181D01*
X013651Y003035D02*
X013530Y003035D01*
X013411Y002877D02*
X013651Y002877D01*
X013690Y002718D02*
X007559Y002718D01*
X007540Y002560D02*
X007649Y002560D01*
X007576Y002877D02*
X007510Y002877D01*
X007181Y002681D02*
X001181Y002681D01*
X000681Y003181D01*
X001187Y002401D02*
X002506Y002401D01*
X002444Y002340D01*
X001944Y001840D01*
X001901Y001737D01*
X001901Y001626D01*
X001901Y001552D01*
X001811Y001461D01*
X001182Y001461D01*
X001165Y001504D01*
X001004Y001665D01*
X000935Y001693D01*
X000970Y001711D01*
X001040Y001762D01*
X001101Y001823D01*
X001152Y001893D01*
X001191Y001970D01*
X001218Y002053D01*
X001231Y002138D01*
X001231Y002161D01*
X000702Y002161D01*
X000702Y002201D01*
X001231Y002201D01*
X001231Y002225D01*
X001218Y002310D01*
X001191Y002393D01*
X001187Y002401D01*
X002505Y002401D01*
X002347Y002242D02*
X001229Y002242D01*
X001223Y002084D02*
X002188Y002084D01*
X002029Y001925D02*
X001168Y001925D01*
X001045Y001767D02*
X001914Y001767D01*
X001901Y001608D02*
X001061Y001608D01*
X000681Y002181D02*
X001681Y002181D01*
X002181Y001681D02*
X002681Y002181D01*
X006181Y002181D01*
X008181Y002181D01*
X007720Y001767D02*
X002663Y001767D01*
X002504Y001608D02*
X006958Y001608D01*
X006799Y001450D02*
X002564Y001450D01*
X002641Y001291D02*
X006721Y001291D01*
X006721Y001133D02*
X002641Y001133D01*
X002625Y000974D02*
X006738Y000974D01*
X006897Y000816D02*
X002466Y000816D01*
X002181Y001181D02*
X002181Y001681D01*
X002181Y001181D02*
X000681Y001181D01*
X000458Y000657D02*
X000381Y000657D01*
X000381Y000499D02*
X007468Y000499D01*
X007310Y000657D02*
X000905Y000657D01*
X001122Y000816D02*
X001897Y000816D01*
X001681Y003181D02*
X008181Y003181D01*
X007600Y003511D02*
X006907Y003511D01*
X006681Y003681D02*
X007181Y004181D01*
X006908Y004304D02*
X001251Y004304D01*
X001251Y004145D02*
X006749Y004145D01*
X006591Y003986D02*
X002411Y003986D01*
X002181Y003681D02*
X006681Y003681D01*
X008181Y005181D02*
X004681Y005181D01*
X004934Y005572D02*
X007662Y005572D01*
X007563Y005889D02*
X005008Y005889D01*
X005015Y005896D02*
X005056Y005952D01*
X005087Y006013D01*
X005108Y006079D01*
X005119Y006147D01*
X005119Y006181D01*
X004682Y006181D01*
X004682Y006182D01*
X004681Y006182D01*
X004681Y006181D01*
X004682Y006181D01*
X004682Y005744D01*
X004716Y005744D01*
X004784Y005755D01*
X004849Y005776D01*
X004911Y005807D01*
X004966Y005848D01*
X005015Y005896D01*
X005098Y006048D02*
X006919Y006048D01*
X006761Y006206D02*
X005119Y006206D01*
X005119Y006216D02*
X005108Y006284D01*
X005087Y006349D01*
X005056Y006411D01*
X005015Y006466D01*
X004966Y006515D01*
X004911Y006556D01*
X004849Y006587D01*
X004784Y006608D01*
X004716Y006619D01*
X004682Y006619D01*
X004682Y006182D01*
X005119Y006182D01*
X005119Y006216D01*
X005079Y006365D02*
X006602Y006365D01*
X006444Y006523D02*
X004955Y006523D01*
X004682Y006523D02*
X004681Y006523D01*
X004681Y006365D02*
X004682Y006365D01*
X004681Y006206D02*
X004682Y006206D01*
X004681Y006048D02*
X004682Y006048D01*
X004681Y005889D02*
X004682Y005889D01*
X005138Y006840D02*
X006127Y006840D01*
X006285Y006682D02*
X000964Y006682D01*
X001146Y006840D02*
X004225Y006840D01*
X004224Y006999D02*
X002895Y006999D01*
X003053Y007157D02*
X004224Y007157D01*
X004224Y007316D02*
X003212Y007316D01*
X003370Y007474D02*
X004224Y007474D01*
X004335Y007633D02*
X003529Y007633D01*
X003687Y007791D02*
X007661Y007791D01*
X007592Y007474D02*
X005139Y007474D01*
X005028Y007633D02*
X010334Y007633D01*
X010492Y007474D02*
X008771Y007474D01*
X008777Y007468D02*
X008728Y007517D01*
X008672Y007558D01*
X008610Y007589D01*
X008544Y007611D01*
X008476Y007621D01*
X008182Y007621D01*
X008182Y007182D01*
X008881Y007182D01*
X008881Y007216D01*
X008871Y007284D01*
X008849Y007350D01*
X008818Y007412D01*
X008777Y007468D01*
X008860Y007316D02*
X010479Y007316D01*
X010461Y007157D02*
X008881Y007157D01*
X008881Y007147D02*
X008871Y007078D01*
X008849Y007012D01*
X008818Y006951D01*
X008777Y006895D01*
X008728Y006846D01*
X008672Y006805D01*
X008610Y006774D01*
X008544Y006752D01*
X008476Y006741D01*
X008182Y006741D01*
X008182Y007181D01*
X008881Y007181D01*
X008881Y007147D01*
X008842Y006999D02*
X010499Y006999D01*
X010612Y006840D02*
X008720Y006840D01*
X008750Y006523D02*
X010613Y006523D01*
X010499Y006365D02*
X008863Y006365D01*
X008901Y006206D02*
X010461Y006206D01*
X010479Y006048D02*
X008884Y006048D01*
X008799Y005889D02*
X010563Y005889D01*
X011181Y007181D02*
X009681Y008681D01*
X003681Y008681D01*
X003681Y008181D02*
X008181Y008181D01*
X008702Y007791D02*
X010175Y007791D01*
X010017Y007950D02*
X008843Y007950D01*
X008901Y008109D02*
X009858Y008109D01*
X009700Y008267D02*
X008901Y008267D01*
X008182Y007474D02*
X008181Y007474D01*
X008181Y007316D02*
X008182Y007316D01*
X008181Y007157D02*
X008182Y007157D01*
X008181Y006999D02*
X008182Y006999D01*
X008181Y006840D02*
X008182Y006840D01*
X007613Y006523D02*
X007236Y006523D01*
X006181Y007181D02*
X004681Y007181D01*
X003681Y008181D02*
X002681Y007181D01*
X000681Y007181D01*
X000681Y008181D02*
X002181Y008181D01*
X003181Y009181D01*
X008181Y009181D01*
X008181Y010181D02*
X009181Y010181D01*
X009559Y010170D02*
X010461Y010170D01*
X010484Y010328D02*
X009530Y010328D01*
X009411Y010487D02*
X010576Y010487D01*
X010648Y010804D02*
X010258Y010804D01*
X010105Y010804D02*
X008714Y010804D01*
X008787Y010487D02*
X008952Y010487D01*
X009520Y010011D02*
X010494Y010011D01*
X010600Y009853D02*
X009878Y009853D01*
X010036Y009694D02*
X011803Y009694D01*
X011833Y009535D02*
X011738Y009535D01*
X011763Y009853D02*
X011843Y009853D01*
X011869Y010011D02*
X011989Y010011D01*
X011901Y010170D02*
X019666Y010170D01*
X019666Y010328D02*
X015317Y010328D01*
X015510Y010487D02*
X019666Y010487D01*
X019666Y010645D02*
X015559Y010645D01*
X015540Y010804D02*
X019666Y010804D01*
X019666Y010962D02*
X015435Y010962D01*
X015181Y010681D02*
X011681Y010681D01*
X011181Y011181D01*
X011322Y010645D02*
X000877Y010645D01*
X001110Y010804D02*
X007648Y010804D01*
X007576Y010487D02*
X000381Y010487D01*
X000381Y010645D02*
X000486Y010645D01*
X000381Y010328D02*
X002432Y010328D01*
X002274Y010170D02*
X000381Y010170D01*
X000381Y010011D02*
X002115Y010011D01*
X001957Y009853D02*
X000381Y009853D01*
X000681Y009181D02*
X001681Y009181D01*
X002681Y010181D01*
X008181Y010181D01*
X008181Y011181D02*
X010181Y011181D01*
X010460Y011438D02*
X010530Y011438D01*
X010722Y011597D02*
X008641Y011597D01*
X008614Y011755D02*
X010749Y011755D01*
X010830Y011721D02*
X010661Y011791D01*
X010531Y011921D01*
X010461Y012090D01*
X010461Y012273D01*
X010531Y012442D01*
X010661Y012571D01*
X010830Y012641D01*
X011245Y012641D01*
X011346Y012741D01*
X011182Y012741D01*
X011182Y013181D01*
X011182Y013182D01*
X011181Y013182D01*
X011181Y013621D01*
X010887Y013621D01*
X010818Y013611D01*
X010752Y013589D01*
X010691Y013558D01*
X010635Y013517D01*
X010586Y013468D01*
X010545Y013412D01*
X010514Y013350D01*
X010492Y013284D01*
X010481Y013216D01*
X010481Y013182D01*
X008901Y013182D01*
X008873Y013341D02*
X010511Y013341D01*
X010481Y013182D02*
X011181Y013182D01*
X011182Y013182D01*
X011182Y013621D01*
X011476Y013621D01*
X011544Y013611D01*
X011610Y013589D01*
X011672Y013558D01*
X011728Y013517D01*
X011777Y013468D01*
X011818Y013412D01*
X011849Y013350D01*
X011871Y013284D01*
X011881Y013216D01*
X011881Y013182D01*
X019666Y013182D01*
X019666Y013341D02*
X011852Y013341D01*
X011881Y013182D02*
X011182Y013182D01*
X011182Y013181D02*
X011881Y013181D01*
X011881Y013147D01*
X011871Y013078D01*
X011849Y013012D01*
X011823Y012961D01*
X015427Y012961D01*
X015467Y013002D01*
X015606Y013059D01*
X015757Y013059D01*
X015896Y013002D01*
X016002Y012896D01*
X016059Y012757D01*
X016059Y012606D01*
X016002Y012467D01*
X015896Y012361D01*
X015757Y012303D01*
X015606Y012303D01*
X015467Y012361D01*
X015427Y012401D01*
X011848Y012401D01*
X011901Y012273D01*
X011901Y012090D01*
X011831Y011921D01*
X011702Y011791D01*
X011533Y011721D01*
X010830Y011721D01*
X010539Y011914D02*
X008824Y011914D01*
X008894Y012072D02*
X010469Y012072D01*
X010461Y012231D02*
X008901Y012231D01*
X008853Y012389D02*
X010510Y012389D01*
X010637Y012548D02*
X008726Y012548D01*
X008775Y012865D02*
X010616Y012865D01*
X010635Y012846D02*
X010691Y012805D01*
X010752Y012774D01*
X010818Y012752D01*
X010887Y012741D01*
X011181Y012741D01*
X011181Y013181D01*
X011182Y013181D01*
X011181Y013181D02*
X010481Y013181D01*
X010481Y013147D01*
X010492Y013078D01*
X010514Y013012D01*
X010545Y012951D01*
X010586Y012895D01*
X010635Y012846D01*
X010510Y013023D02*
X008874Y013023D01*
X008774Y013499D02*
X010617Y013499D01*
X010636Y013816D02*
X008727Y013816D01*
X008854Y013975D02*
X010509Y013975D01*
X010461Y014133D02*
X008901Y014133D01*
X008894Y014292D02*
X010469Y014292D01*
X011181Y014181D02*
X013181Y014181D01*
X013181Y014681D01*
X013681Y015181D01*
X017681Y015181D01*
X018681Y016181D01*
X019181Y016181D01*
X018928Y016693D02*
X018859Y016665D01*
X018698Y016504D01*
X018680Y016461D01*
X018626Y016461D01*
X018523Y016419D01*
X018444Y016340D01*
X017565Y015461D01*
X015996Y015461D01*
X016002Y015467D01*
X016059Y015606D01*
X016059Y015757D01*
X016002Y015896D01*
X015976Y015921D01*
X016194Y015921D01*
X016215Y015870D01*
X016370Y015715D01*
X016572Y015631D01*
X016791Y015631D01*
X016993Y015715D01*
X017148Y015870D01*
X017161Y015901D01*
X017427Y015901D01*
X017467Y015861D01*
X017606Y015803D01*
X017757Y015803D01*
X017896Y015861D01*
X018002Y015967D01*
X018059Y016106D01*
X018059Y016257D01*
X018002Y016396D01*
X017896Y016502D01*
X017757Y016559D01*
X017606Y016559D01*
X017467Y016502D01*
X017427Y016461D01*
X017161Y016461D01*
X017148Y016493D01*
X016993Y016648D01*
X016791Y016731D01*
X016572Y016731D01*
X016370Y016648D01*
X016215Y016493D01*
X016194Y016441D01*
X014833Y016441D01*
X014840Y016444D01*
X015297Y016901D01*
X017427Y016901D01*
X017467Y016861D01*
X017606Y016803D01*
X017757Y016803D01*
X017896Y016861D01*
X018002Y016967D01*
X018059Y017106D01*
X018059Y017257D01*
X018002Y017396D01*
X017896Y017502D01*
X017757Y017559D01*
X017606Y017559D01*
X017467Y017502D01*
X017427Y017461D01*
X015126Y017461D01*
X015023Y017419D01*
X014944Y017340D01*
X014565Y016961D01*
X012436Y016961D01*
X012396Y017002D01*
X012257Y017059D01*
X012106Y017059D01*
X011967Y017002D01*
X011861Y016896D01*
X011803Y016757D01*
X011803Y016606D01*
X011861Y016467D01*
X011897Y016431D01*
X011861Y016396D01*
X011803Y016257D01*
X011803Y016106D01*
X011861Y015967D01*
X011867Y015961D01*
X010436Y015961D01*
X010396Y016002D01*
X010257Y016059D01*
X010106Y016059D01*
X009967Y016002D01*
X009861Y015896D01*
X009803Y015757D01*
X009803Y015606D01*
X009861Y015467D01*
X009887Y015441D01*
X009285Y015441D01*
X009237Y015461D01*
X009126Y015461D01*
X009023Y015419D01*
X008245Y014641D01*
X008117Y014641D01*
X007840Y014919D01*
X007737Y014961D01*
X007626Y014961D01*
X003126Y014961D01*
X003023Y014919D01*
X002944Y014840D01*
X002565Y014461D01*
X001251Y014461D01*
X001251Y014634D01*
X001134Y014751D01*
X000381Y014751D01*
X000381Y019666D01*
X001153Y019666D01*
X001036Y019549D01*
X000920Y019270D01*
X000920Y018967D01*
X001036Y018687D01*
X001250Y018473D01*
X001530Y018357D01*
X001833Y018357D01*
X002112Y018473D01*
X002327Y018687D01*
X002442Y018967D01*
X002442Y019270D01*
X002327Y019549D01*
X002210Y019666D01*
X018863Y019666D01*
X018859Y019665D01*
X018698Y019504D01*
X018611Y019295D01*
X018611Y019068D01*
X018698Y018859D01*
X018859Y018698D01*
X018899Y018681D01*
X018859Y018665D01*
X018698Y018504D01*
X018680Y018461D01*
X018297Y018461D01*
X017340Y019419D01*
X017237Y019461D01*
X017126Y019461D01*
X015936Y019461D01*
X015896Y019502D01*
X015757Y019559D01*
X015606Y019559D01*
X015467Y019502D01*
X015361Y019396D01*
X015303Y019257D01*
X015303Y019106D01*
X015361Y018967D01*
X015467Y018861D01*
X015606Y018803D01*
X015757Y018803D01*
X015896Y018861D01*
X015936Y018901D01*
X017065Y018901D01*
X017944Y018023D01*
X018023Y017944D01*
X018126Y017901D01*
X018680Y017901D01*
X018698Y017859D01*
X018859Y017698D01*
X018928Y017669D01*
X018893Y017652D01*
X018823Y017601D01*
X018762Y017540D01*
X018711Y017470D01*
X018672Y017393D01*
X018645Y017310D01*
X018631Y017225D01*
X018631Y017201D01*
X019161Y017201D01*
X019161Y017161D01*
X018631Y017161D01*
X018631Y017138D01*
X018645Y017053D01*
X018672Y016970D01*
X018711Y016893D01*
X018762Y016823D01*
X018823Y016762D01*
X018893Y016711D01*
X018928Y016693D01*
X018871Y016670D02*
X016939Y016670D01*
X017129Y016511D02*
X017490Y016511D01*
X017681Y016181D02*
X016681Y016181D01*
X016424Y016670D02*
X015066Y016670D01*
X015224Y016828D02*
X017545Y016828D01*
X017817Y016828D02*
X018758Y016828D01*
X018666Y016987D02*
X018010Y016987D01*
X018059Y017146D02*
X018631Y017146D01*
X018644Y017304D02*
X018040Y017304D01*
X017935Y017463D02*
X018707Y017463D01*
X018851Y017621D02*
X011674Y017621D01*
X011706Y017589D02*
X011589Y017706D01*
X011353Y017706D01*
X011375Y017713D01*
X011446Y017749D01*
X011510Y017796D01*
X011567Y017852D01*
X011613Y017917D01*
X011649Y017988D01*
X011674Y018063D01*
X011686Y018142D01*
X011686Y018181D01*
X011182Y018181D01*
X011182Y018182D01*
X011181Y018182D01*
X011181Y018686D01*
X011142Y018686D01*
X011063Y018674D01*
X010988Y018649D01*
X010917Y018613D01*
X010852Y018567D01*
X010796Y018510D01*
X010749Y018446D01*
X010713Y018375D01*
X010689Y018300D01*
X010676Y018221D01*
X010676Y018182D01*
X011181Y018182D01*
X011181Y018181D01*
X010676Y018181D01*
X010676Y018142D01*
X010689Y018063D01*
X010713Y017988D01*
X010749Y017917D01*
X010796Y017852D01*
X010852Y017796D01*
X010917Y017749D01*
X010988Y017713D01*
X011009Y017706D01*
X010774Y017706D01*
X010656Y017589D01*
X010656Y017461D01*
X009407Y017461D01*
X009405Y017465D01*
X009265Y017605D01*
X009081Y017681D01*
X008282Y017681D01*
X008098Y017605D01*
X007958Y017465D01*
X007881Y017281D01*
X007881Y017082D01*
X007958Y016898D01*
X008098Y016758D01*
X008282Y016681D01*
X009081Y016681D01*
X009265Y016758D01*
X009405Y016898D01*
X009407Y016901D01*
X010656Y016901D01*
X010656Y016774D01*
X010774Y016656D01*
X011589Y016656D01*
X011706Y016774D01*
X011706Y017589D01*
X011706Y017463D02*
X017428Y017463D01*
X017175Y017721D02*
X017199Y017762D01*
X017211Y017808D01*
X017211Y018181D01*
X016682Y018181D01*
X016682Y018182D01*
X016681Y018182D01*
X016681Y018711D01*
X016308Y018711D01*
X016262Y018699D01*
X016221Y018675D01*
X016187Y018642D01*
X016164Y018601D01*
X016151Y018555D01*
X016151Y018182D01*
X016681Y018182D01*
X016681Y018181D01*
X016682Y018181D01*
X016682Y017651D01*
X017055Y017651D01*
X017101Y017664D01*
X017142Y017687D01*
X017175Y017721D01*
X017204Y017780D02*
X018777Y017780D01*
X019181Y018181D02*
X018181Y018181D01*
X017181Y019181D01*
X015681Y019181D01*
X015520Y019524D02*
X002337Y019524D01*
X002403Y019365D02*
X009969Y019365D01*
X009944Y019340D02*
X009226Y018621D01*
X009081Y018681D01*
X008282Y018681D01*
X008098Y018605D01*
X007958Y018465D01*
X007956Y018461D01*
X006626Y018461D01*
X006523Y018419D01*
X006444Y018340D01*
X006098Y017993D01*
X005896Y018196D01*
X006176Y018476D01*
X006176Y018681D01*
X005682Y018681D01*
X005682Y018682D01*
X005681Y018682D01*
X005681Y019176D01*
X005476Y019176D01*
X005186Y018886D01*
X005186Y018682D01*
X005681Y018682D01*
X005681Y018681D01*
X005186Y018681D01*
X005186Y018476D01*
X005467Y018196D01*
X005233Y017961D01*
X004797Y017961D01*
X004340Y018419D01*
X004237Y018461D01*
X004231Y018461D01*
X004169Y018611D01*
X004041Y018739D01*
X003872Y018809D01*
X003690Y018809D01*
X003522Y018739D01*
X003394Y018611D01*
X003333Y018465D01*
X003252Y018499D01*
X003070Y018499D01*
X002902Y018429D01*
X002774Y018301D01*
X002704Y018132D01*
X002704Y017950D01*
X002774Y017782D01*
X002859Y017696D01*
X002774Y017611D01*
X002704Y017442D01*
X002704Y017260D01*
X002774Y017092D01*
X002902Y016964D01*
X003070Y016894D01*
X003252Y016894D01*
X003346Y016933D01*
X003355Y016879D01*
X003376Y016813D01*
X003407Y016752D01*
X003448Y016696D01*
X003496Y016648D01*
X003552Y016607D01*
X003613Y016576D01*
X003679Y016555D01*
X003747Y016544D01*
X003781Y016544D01*
X003781Y016981D01*
X003782Y016981D01*
X003782Y016982D01*
X004219Y016982D01*
X004219Y017016D01*
X004208Y017084D01*
X004187Y017149D01*
X004156Y017211D01*
X004115Y017266D01*
X004066Y017315D01*
X004064Y017317D01*
X004169Y017422D01*
X004239Y017590D01*
X004239Y017728D01*
X004444Y017523D01*
X004523Y017444D01*
X004626Y017401D01*
X005233Y017401D01*
X005468Y017166D01*
X005895Y017166D01*
X006130Y017401D01*
X006237Y017401D01*
X006340Y017444D01*
X006797Y017901D01*
X007956Y017901D01*
X007958Y017898D01*
X008098Y017758D01*
X008282Y017681D01*
X009081Y017681D01*
X009265Y017758D01*
X009405Y017898D01*
X009481Y018082D01*
X009481Y018085D01*
X010297Y018901D01*
X012065Y018901D01*
X012303Y018664D01*
X012303Y018606D01*
X012361Y018467D01*
X012467Y018361D01*
X012606Y018303D01*
X012757Y018303D01*
X012896Y018361D01*
X013002Y018467D01*
X013059Y018606D01*
X013059Y018757D01*
X013002Y018896D01*
X012896Y019002D01*
X012757Y019059D01*
X012699Y019059D01*
X012340Y019419D01*
X012237Y019461D01*
X012126Y019461D01*
X010126Y019461D01*
X010023Y019419D01*
X009944Y019340D01*
X009811Y019207D02*
X002442Y019207D01*
X002442Y019048D02*
X005348Y019048D01*
X005190Y018890D02*
X002410Y018890D01*
X002345Y018731D02*
X003514Y018731D01*
X003378Y018572D02*
X002212Y018572D01*
X001969Y018414D02*
X002887Y018414D01*
X002755Y018255D02*
X000381Y018255D01*
X000381Y018097D02*
X002704Y018097D01*
X002709Y017938D02*
X000381Y017938D01*
X000381Y017780D02*
X002776Y017780D01*
X002784Y017621D02*
X000381Y017621D01*
X000381Y017463D02*
X002712Y017463D01*
X002704Y017304D02*
X000381Y017304D01*
X000381Y017146D02*
X002751Y017146D01*
X002879Y016987D02*
X001877Y016987D01*
X001833Y017005D02*
X001530Y017005D01*
X001250Y016890D01*
X001036Y016675D01*
X000920Y016396D01*
X000920Y016093D01*
X001036Y015813D01*
X001250Y015599D01*
X001530Y015483D01*
X001833Y015483D01*
X002112Y015599D01*
X002327Y015813D01*
X002442Y016093D01*
X002442Y016396D01*
X002327Y016675D01*
X002112Y016890D01*
X001833Y017005D01*
X002174Y016828D02*
X003371Y016828D01*
X003474Y016670D02*
X002329Y016670D01*
X002395Y016511D02*
X008033Y016511D01*
X008015Y016494D02*
X007971Y016433D01*
X007937Y016366D01*
X007913Y016294D01*
X007901Y016219D01*
X007901Y016201D01*
X008661Y016201D01*
X008661Y016161D01*
X008701Y016161D01*
X008701Y015701D01*
X009019Y015701D01*
X009094Y015713D01*
X009166Y015737D01*
X009233Y015771D01*
X009294Y015815D01*
X009348Y015869D01*
X009392Y015930D01*
X009426Y015997D01*
X009450Y016069D01*
X009461Y016144D01*
X009461Y016161D01*
X008702Y016161D01*
X008702Y016201D01*
X009461Y016201D01*
X009461Y016219D01*
X009450Y016294D01*
X009426Y016366D01*
X009392Y016433D01*
X009348Y016494D01*
X009294Y016548D01*
X009233Y016592D01*
X009166Y016626D01*
X009094Y016650D01*
X009019Y016661D01*
X008701Y016661D01*
X008701Y016202D01*
X008661Y016202D01*
X008661Y016661D01*
X008344Y016661D01*
X008269Y016650D01*
X008197Y016626D01*
X008130Y016592D01*
X008069Y016548D01*
X008015Y016494D01*
X007932Y016353D02*
X002442Y016353D01*
X002442Y016194D02*
X005966Y016194D01*
X005968Y016196D02*
X005667Y015896D01*
X005386Y016176D01*
X005182Y016176D01*
X005182Y015682D01*
X005181Y015682D01*
X005181Y016176D01*
X004976Y016176D01*
X004686Y015886D01*
X004686Y015682D01*
X005181Y015682D01*
X005181Y015681D01*
X005182Y015681D01*
X005182Y015186D01*
X005386Y015186D01*
X005667Y015467D01*
X005968Y015166D01*
X006395Y015166D01*
X006696Y015468D01*
X006696Y015895D01*
X006395Y016196D01*
X005968Y016196D01*
X005808Y016036D02*
X005527Y016036D01*
X005182Y016036D02*
X005181Y016036D01*
X005181Y015877D02*
X005182Y015877D01*
X005181Y015719D02*
X005182Y015719D01*
X005181Y015681D02*
X004686Y015681D01*
X004686Y015476D01*
X004976Y015186D01*
X005181Y015186D01*
X005181Y015681D01*
X005181Y015560D02*
X005182Y015560D01*
X005181Y015402D02*
X005182Y015402D01*
X005181Y015243D02*
X005182Y015243D01*
X004920Y015243D02*
X000381Y015243D01*
X000381Y015084D02*
X008689Y015084D01*
X008530Y014926D02*
X007823Y014926D01*
X007991Y014767D02*
X008371Y014767D01*
X008181Y014181D02*
X009181Y015181D01*
X009006Y015402D02*
X006630Y015402D01*
X006696Y015560D02*
X009822Y015560D01*
X009803Y015719D02*
X009111Y015719D01*
X009354Y015877D02*
X009853Y015877D01*
X010049Y016036D02*
X009439Y016036D01*
X009430Y016353D02*
X011843Y016353D01*
X011843Y016511D02*
X009330Y016511D01*
X009336Y016828D02*
X010656Y016828D01*
X010760Y016670D02*
X004089Y016670D01*
X004066Y016648D02*
X004115Y016696D01*
X004156Y016752D01*
X004187Y016813D01*
X004208Y016879D01*
X004219Y016947D01*
X004219Y016981D01*
X003782Y016981D01*
X003782Y016544D01*
X003816Y016544D01*
X003884Y016555D01*
X003949Y016576D01*
X004011Y016607D01*
X004066Y016648D01*
X004192Y016828D02*
X008027Y016828D01*
X007921Y016987D02*
X004219Y016987D01*
X004188Y017146D02*
X007881Y017146D01*
X007891Y017304D02*
X006032Y017304D01*
X006359Y017463D02*
X007957Y017463D01*
X008137Y017621D02*
X006517Y017621D01*
X006676Y017780D02*
X008076Y017780D01*
X008681Y018181D02*
X009181Y018181D01*
X010181Y019181D01*
X012181Y019181D01*
X012681Y018681D01*
X012414Y018414D02*
X011630Y018414D01*
X011613Y018446D02*
X011567Y018510D01*
X011510Y018567D01*
X011446Y018613D01*
X011375Y018649D01*
X011300Y018674D01*
X011221Y018686D01*
X011182Y018686D01*
X011182Y018182D01*
X011686Y018182D01*
X011686Y018221D01*
X011674Y018300D01*
X011649Y018375D01*
X011613Y018446D01*
X011502Y018572D02*
X012317Y018572D01*
X012236Y018731D02*
X010127Y018731D01*
X010285Y018890D02*
X012077Y018890D01*
X012394Y019365D02*
X015348Y019365D01*
X015303Y019207D02*
X012552Y019207D01*
X012784Y019048D02*
X015327Y019048D01*
X015439Y018890D02*
X013004Y018890D01*
X013059Y018731D02*
X017236Y018731D01*
X017175Y018642D02*
X017199Y018601D01*
X017211Y018555D01*
X017211Y018182D01*
X016682Y018182D01*
X016682Y018711D01*
X017055Y018711D01*
X017101Y018699D01*
X017142Y018675D01*
X017175Y018642D01*
X017207Y018572D02*
X017394Y018572D01*
X017553Y018414D02*
X017211Y018414D01*
X017211Y018255D02*
X017711Y018255D01*
X017870Y018097D02*
X017211Y018097D01*
X017211Y017938D02*
X018037Y017938D01*
X018186Y018572D02*
X018766Y018572D01*
X018826Y018731D02*
X018028Y018731D01*
X017869Y018890D02*
X018685Y018890D01*
X018620Y019048D02*
X017711Y019048D01*
X017552Y019207D02*
X018611Y019207D01*
X018641Y019365D02*
X017394Y019365D01*
X017077Y018890D02*
X015924Y018890D01*
X016156Y018572D02*
X014913Y018572D01*
X014864Y018621D02*
X014682Y018621D01*
X014682Y018182D01*
X015121Y018182D01*
X015121Y018364D01*
X014864Y018621D01*
X014681Y018621D02*
X014499Y018621D01*
X014241Y018364D01*
X014241Y018182D01*
X014681Y018182D01*
X014681Y018621D01*
X014681Y018572D02*
X014682Y018572D01*
X014681Y018414D02*
X014682Y018414D01*
X014681Y018255D02*
X014682Y018255D01*
X014682Y018182D02*
X014681Y018182D01*
X014681Y018181D01*
X014682Y018181D01*
X014682Y018182D01*
X014682Y018181D02*
X015121Y018181D01*
X015121Y017999D01*
X014864Y017741D01*
X014682Y017741D01*
X014682Y018181D01*
X014681Y018181D02*
X014681Y017741D01*
X014499Y017741D01*
X014241Y017999D01*
X014241Y018181D01*
X014681Y018181D01*
X014681Y018097D02*
X014682Y018097D01*
X014681Y017938D02*
X014682Y017938D01*
X014681Y017780D02*
X014682Y017780D01*
X014902Y017780D02*
X016159Y017780D01*
X016164Y017762D02*
X016151Y017808D01*
X016151Y018181D01*
X016681Y018181D01*
X016681Y017651D01*
X016308Y017651D01*
X016262Y017664D01*
X016221Y017687D01*
X016187Y017721D01*
X016164Y017762D01*
X016151Y017938D02*
X015060Y017938D01*
X015121Y018097D02*
X016151Y018097D01*
X016151Y018255D02*
X015121Y018255D01*
X015071Y018414D02*
X016151Y018414D01*
X016681Y018414D02*
X016682Y018414D01*
X016681Y018572D02*
X016682Y018572D01*
X016681Y018255D02*
X016682Y018255D01*
X016681Y018097D02*
X016682Y018097D01*
X016681Y017938D02*
X016682Y017938D01*
X016681Y017780D02*
X016682Y017780D01*
X017681Y017181D02*
X015181Y017181D01*
X014681Y016681D01*
X012181Y016681D01*
X011803Y016670D02*
X011603Y016670D01*
X011706Y016828D02*
X011833Y016828D01*
X011952Y016987D02*
X011706Y016987D01*
X011706Y017146D02*
X014750Y017146D01*
X014908Y017304D02*
X011706Y017304D01*
X011488Y017780D02*
X013433Y017780D01*
X013491Y017721D02*
X013221Y017991D01*
X013221Y018372D01*
X013491Y018641D01*
X013872Y018641D01*
X014141Y018372D01*
X014141Y017991D01*
X013872Y017721D01*
X013491Y017721D01*
X013274Y017938D02*
X011624Y017938D01*
X011679Y018097D02*
X013221Y018097D01*
X013221Y018255D02*
X011681Y018255D01*
X011182Y018255D02*
X011181Y018255D01*
X011181Y018414D02*
X011182Y018414D01*
X011181Y018572D02*
X011182Y018572D01*
X010861Y018572D02*
X009968Y018572D01*
X009810Y018414D02*
X010733Y018414D01*
X010682Y018255D02*
X009651Y018255D01*
X009493Y018097D02*
X010684Y018097D01*
X010739Y017938D02*
X009422Y017938D01*
X009287Y017780D02*
X010875Y017780D01*
X010688Y017621D02*
X009226Y017621D01*
X009406Y017463D02*
X010656Y017463D01*
X011181Y017181D02*
X008681Y017181D01*
X008661Y016511D02*
X008701Y016511D01*
X008701Y016353D02*
X008661Y016353D01*
X008661Y016194D02*
X006397Y016194D01*
X006555Y016036D02*
X007924Y016036D01*
X007913Y016069D02*
X007937Y015997D01*
X007971Y015930D01*
X008015Y015869D01*
X008069Y015815D01*
X008130Y015771D01*
X008197Y015737D01*
X008269Y015713D01*
X008344Y015701D01*
X008661Y015701D01*
X008661Y016161D01*
X007901Y016161D01*
X007901Y016144D01*
X007913Y016069D01*
X008009Y015877D02*
X006696Y015877D01*
X006696Y015719D02*
X008252Y015719D01*
X008661Y015719D02*
X008701Y015719D01*
X008701Y015877D02*
X008661Y015877D01*
X008661Y016036D02*
X008701Y016036D01*
X008702Y016194D02*
X011803Y016194D01*
X011832Y016036D02*
X010314Y016036D01*
X010181Y015681D02*
X015681Y015681D01*
X016040Y015560D02*
X017664Y015560D01*
X017823Y015719D02*
X016996Y015719D01*
X017151Y015877D02*
X017451Y015877D01*
X017912Y015877D02*
X017981Y015877D01*
X018030Y016036D02*
X018140Y016036D01*
X018059Y016194D02*
X018298Y016194D01*
X018444Y016340D02*
X018444Y016340D01*
X018457Y016353D02*
X018020Y016353D01*
X017873Y016511D02*
X018705Y016511D01*
X018696Y015719D02*
X018615Y015719D01*
X018611Y015560D02*
X018456Y015560D01*
X018611Y015402D02*
X018297Y015402D01*
X018139Y015243D02*
X018611Y015243D01*
X018611Y015084D02*
X017980Y015084D01*
X017919Y015023D02*
X017919Y015023D01*
X017796Y014926D02*
X018611Y014926D01*
X018611Y014767D02*
X013663Y014767D01*
X013505Y014609D02*
X017958Y014609D01*
X017991Y014641D02*
X017721Y014372D01*
X017721Y013991D01*
X017991Y013721D01*
X018372Y013721D01*
X018641Y013991D01*
X018641Y014372D01*
X018372Y014641D01*
X017991Y014641D01*
X017800Y014450D02*
X013563Y014450D01*
X013641Y014292D02*
X017721Y014292D01*
X017721Y014133D02*
X013641Y014133D01*
X013625Y013975D02*
X017738Y013975D01*
X017896Y013816D02*
X013467Y013816D01*
X012896Y013816D02*
X011727Y013816D01*
X011746Y013499D02*
X019666Y013499D01*
X019666Y013658D02*
X006696Y013658D01*
X006696Y013816D02*
X007636Y013816D01*
X007509Y013975D02*
X006616Y013975D01*
X006696Y013895D02*
X006395Y014196D01*
X005968Y014196D01*
X005667Y013896D01*
X005386Y014176D01*
X005182Y014176D01*
X005182Y013682D01*
X005181Y013682D01*
X005181Y014176D01*
X004976Y014176D01*
X004686Y013886D01*
X004686Y013682D01*
X005181Y013682D01*
X005181Y013681D01*
X005182Y013681D01*
X005182Y013186D01*
X005386Y013186D01*
X005667Y013467D01*
X005968Y013166D01*
X006395Y013166D01*
X006696Y013468D01*
X006696Y013895D01*
X006458Y014133D02*
X007461Y014133D01*
X007469Y014292D02*
X003188Y014292D01*
X003029Y014133D02*
X004933Y014133D01*
X004775Y013975D02*
X002871Y013975D01*
X002919Y014023D02*
X002919Y014023D01*
X002681Y014181D02*
X003181Y014681D01*
X007681Y014681D01*
X008181Y014181D01*
X008846Y014450D02*
X009378Y014450D01*
X009303Y014609D02*
X009005Y014609D01*
X009163Y014767D02*
X009308Y014767D01*
X009681Y014681D02*
X011681Y014681D01*
X011181Y013499D02*
X011182Y013499D01*
X011181Y013341D02*
X011182Y013341D01*
X011181Y013182D02*
X011181Y013181D01*
X011181Y013023D02*
X011182Y013023D01*
X011181Y012865D02*
X011182Y012865D01*
X011310Y012706D02*
X008102Y012706D01*
X007681Y012681D02*
X008181Y013181D01*
X007681Y012681D02*
X003681Y012681D01*
X003181Y013181D01*
X000681Y013181D01*
X001167Y013499D02*
X004686Y013499D01*
X004686Y013476D02*
X004976Y013186D01*
X005181Y013186D01*
X005181Y013681D01*
X004686Y013681D01*
X004686Y013476D01*
X004686Y013658D02*
X001180Y013658D01*
X001251Y013816D02*
X004686Y013816D01*
X005181Y013816D02*
X005182Y013816D01*
X005181Y013658D02*
X005182Y013658D01*
X005181Y013499D02*
X005182Y013499D01*
X005181Y013341D02*
X005182Y013341D01*
X004822Y013341D02*
X003418Y013341D01*
X003577Y013182D02*
X005953Y013182D01*
X005794Y013341D02*
X005541Y013341D01*
X005588Y013975D02*
X005746Y013975D01*
X005905Y014133D02*
X005430Y014133D01*
X005182Y014133D02*
X005181Y014133D01*
X005181Y013975D02*
X005182Y013975D01*
X005443Y015243D02*
X005891Y015243D01*
X005733Y015402D02*
X005602Y015402D01*
X006471Y015243D02*
X008847Y015243D01*
X007589Y013499D02*
X006696Y013499D01*
X006569Y013341D02*
X007489Y013341D01*
X007461Y013182D02*
X006410Y013182D01*
X007489Y013023D02*
X003735Y013023D01*
X002681Y014181D02*
X000681Y014181D01*
X000381Y014767D02*
X002871Y014767D01*
X002944Y014840D02*
X002944Y014840D01*
X003040Y014926D02*
X000381Y014926D01*
X000381Y015402D02*
X004761Y015402D01*
X004686Y015560D02*
X002018Y015560D01*
X002232Y015719D02*
X004686Y015719D01*
X004686Y015877D02*
X002353Y015877D01*
X002419Y016036D02*
X004836Y016036D01*
X003782Y016670D02*
X003781Y016670D01*
X003781Y016828D02*
X003782Y016828D01*
X004077Y017304D02*
X005330Y017304D01*
X005681Y017681D02*
X006181Y017681D01*
X006681Y018181D01*
X008681Y018181D01*
X008065Y018572D02*
X006176Y018572D01*
X006176Y018682D02*
X006176Y018886D01*
X005886Y019176D01*
X005682Y019176D01*
X005682Y018682D01*
X006176Y018682D01*
X006176Y018731D02*
X009335Y018731D01*
X009494Y018890D02*
X006173Y018890D01*
X006015Y019048D02*
X009652Y019048D01*
X012411Y016987D02*
X014591Y016987D01*
X014907Y016511D02*
X016234Y016511D01*
X016212Y015877D02*
X016010Y015877D01*
X016059Y015719D02*
X016366Y015719D01*
X018404Y014609D02*
X019666Y014609D01*
X019666Y014450D02*
X018563Y014450D01*
X018641Y014292D02*
X019666Y014292D01*
X019666Y014133D02*
X018641Y014133D01*
X018625Y013975D02*
X019666Y013975D01*
X019666Y013816D02*
X018467Y013816D01*
X019666Y013023D02*
X015844Y013023D01*
X016015Y012865D02*
X019666Y012865D01*
X019666Y012706D02*
X016059Y012706D01*
X016035Y012548D02*
X019666Y012548D01*
X019666Y012389D02*
X015924Y012389D01*
X015681Y012681D02*
X011681Y012681D01*
X011181Y012181D01*
X011614Y011755D02*
X012721Y011755D01*
X012721Y011872D02*
X012721Y011491D01*
X012991Y011221D01*
X013372Y011221D01*
X013641Y011491D01*
X013641Y011872D01*
X013372Y012141D01*
X012991Y012141D01*
X012721Y011872D01*
X012763Y011914D02*
X011824Y011914D01*
X011894Y012072D02*
X012922Y012072D01*
X012721Y011597D02*
X011641Y011597D01*
X011833Y011438D02*
X012774Y011438D01*
X012933Y011279D02*
X011899Y011279D01*
X011901Y011121D02*
X019666Y011121D01*
X019666Y011279D02*
X018430Y011279D01*
X018372Y011221D02*
X018641Y011491D01*
X018641Y011872D01*
X018372Y012141D01*
X017991Y012141D01*
X017721Y011872D01*
X017721Y011491D01*
X017991Y011221D01*
X018372Y011221D01*
X018589Y011438D02*
X019666Y011438D01*
X019666Y011597D02*
X018641Y011597D01*
X018641Y011755D02*
X019666Y011755D01*
X019666Y011914D02*
X018600Y011914D01*
X018441Y012072D02*
X019666Y012072D01*
X019666Y012231D02*
X011901Y012231D01*
X011853Y012389D02*
X015439Y012389D01*
X015519Y013023D02*
X011853Y013023D01*
X013441Y012072D02*
X017922Y012072D01*
X017763Y011914D02*
X013600Y011914D01*
X013641Y011755D02*
X017721Y011755D01*
X017721Y011597D02*
X013641Y011597D01*
X013589Y011438D02*
X017774Y011438D01*
X017933Y011279D02*
X013430Y011279D01*
X012373Y010011D02*
X019666Y010011D01*
X019666Y009853D02*
X012878Y009853D01*
X013036Y009694D02*
X018671Y009694D01*
X018611Y009535D02*
X018478Y009535D01*
X017885Y009535D02*
X013478Y009535D01*
X013636Y009377D02*
X017726Y009377D01*
X017721Y009218D02*
X013641Y009218D01*
X013641Y009060D02*
X017721Y009060D01*
X016867Y008901D02*
X013552Y008901D01*
X013393Y008743D02*
X016803Y008743D01*
X016812Y008584D02*
X011671Y008584D01*
X011584Y008743D02*
X012970Y008743D01*
X012811Y008901D02*
X011812Y008901D01*
X011838Y008426D02*
X014891Y008426D01*
X014649Y006875D02*
X014674Y006800D01*
X014686Y006721D01*
X014686Y006682D01*
X015181Y006181D02*
X018181Y006181D01*
X019181Y004181D02*
X013181Y004181D01*
X013047Y003828D02*
X011738Y003828D01*
X011762Y003511D02*
X012989Y003511D01*
X013181Y003181D02*
X011181Y003181D01*
X010600Y003511D02*
X008762Y003511D01*
X008869Y003352D02*
X010494Y003352D01*
X010461Y003194D02*
X008901Y003194D01*
X008879Y003035D02*
X010484Y003035D01*
X010576Y002877D02*
X008787Y002877D01*
X008714Y002560D02*
X010649Y002560D01*
X010515Y002401D02*
X008848Y002401D01*
X008901Y002242D02*
X010461Y002242D01*
X010464Y002084D02*
X008899Y002084D01*
X008833Y001925D02*
X010530Y001925D01*
X010720Y001767D02*
X008643Y001767D01*
X008613Y001608D02*
X010750Y001608D01*
X010539Y001450D02*
X008824Y001450D01*
X008894Y001291D02*
X010469Y001291D01*
X010461Y001133D02*
X008901Y001133D01*
X008853Y000974D02*
X010509Y000974D01*
X011613Y001608D02*
X011803Y001608D01*
X011808Y001767D02*
X011643Y001767D01*
X011824Y001450D02*
X011878Y001450D01*
X011894Y001291D02*
X013221Y001291D01*
X013221Y001133D02*
X011901Y001133D01*
X011853Y000974D02*
X013078Y000974D01*
X013181Y000681D02*
X013681Y001181D01*
X013966Y000816D02*
X014425Y000816D01*
X014499Y000741D02*
X014241Y000999D01*
X014241Y001181D01*
X014681Y001181D01*
X014681Y000741D01*
X014499Y000741D01*
X014682Y000741D02*
X014864Y000741D01*
X015121Y000999D01*
X015121Y001181D01*
X014682Y001181D01*
X014682Y000741D01*
X014681Y000816D02*
X014682Y000816D01*
X014681Y000974D02*
X014682Y000974D01*
X014681Y001133D02*
X014682Y001133D01*
X014938Y000816D02*
X015897Y000816D01*
X015738Y000974D02*
X015096Y000974D01*
X015121Y001133D02*
X015721Y001133D01*
X015721Y001291D02*
X015121Y001291D01*
X014241Y001291D02*
X014141Y001291D01*
X014141Y001133D02*
X014241Y001133D01*
X014266Y000974D02*
X014125Y000974D01*
X013553Y000657D02*
X018958Y000657D01*
X018741Y000816D02*
X017438Y000816D01*
X017364Y000741D02*
X017621Y000999D01*
X017621Y001181D01*
X017182Y001181D01*
X017182Y000741D01*
X017364Y000741D01*
X017181Y000741D02*
X017181Y001181D01*
X016741Y001181D01*
X016741Y000999D01*
X016999Y000741D01*
X017181Y000741D01*
X017181Y000816D02*
X017182Y000816D01*
X017181Y000974D02*
X017182Y000974D01*
X017181Y001133D02*
X017182Y001133D01*
X016925Y000816D02*
X016466Y000816D01*
X016625Y000974D02*
X016766Y000974D01*
X016741Y001133D02*
X016641Y001133D01*
X016641Y001291D02*
X016741Y001291D01*
X017621Y001291D02*
X018611Y001291D01*
X018611Y001133D02*
X017621Y001133D01*
X017596Y000974D02*
X018650Y000974D01*
X019181Y001181D02*
X018681Y001681D01*
X012181Y001681D01*
X011714Y002560D02*
X015721Y002560D01*
X015721Y002718D02*
X014673Y002718D01*
X014675Y002721D02*
X014699Y002762D01*
X014711Y002808D01*
X014711Y003181D01*
X014182Y003181D01*
X014182Y002651D01*
X014555Y002651D01*
X014601Y002664D01*
X014642Y002687D01*
X014675Y002721D01*
X014711Y002877D02*
X015726Y002877D01*
X015885Y003035D02*
X014711Y003035D01*
X014711Y003182D02*
X014711Y003555D01*
X014699Y003601D01*
X014675Y003642D01*
X014642Y003675D01*
X014601Y003699D01*
X014555Y003711D01*
X014182Y003711D01*
X014182Y003182D01*
X014711Y003182D01*
X014711Y003194D02*
X018611Y003194D01*
X018625Y003035D02*
X016478Y003035D01*
X016637Y002877D02*
X018481Y002877D01*
X018322Y002718D02*
X016641Y002718D01*
X016641Y002560D02*
X018164Y002560D01*
X018181Y002181D02*
X019181Y003181D01*
X018635Y003352D02*
X014711Y003352D01*
X014711Y003511D02*
X018705Y003511D01*
X018671Y003669D02*
X014648Y003669D01*
X014182Y003669D02*
X014181Y003669D01*
X014181Y003511D02*
X014182Y003511D01*
X014181Y003352D02*
X014182Y003352D01*
X014181Y003194D02*
X014182Y003194D01*
X014181Y003035D02*
X014182Y003035D01*
X014181Y002877D02*
X014182Y002877D01*
X014181Y002718D02*
X014182Y002718D01*
X013316Y003828D02*
X018611Y003828D01*
X018633Y002238D02*
X018357Y001961D01*
X018626Y001961D01*
X018676Y001961D01*
X018672Y001970D01*
X018645Y002053D01*
X018631Y002138D01*
X018631Y002161D01*
X019161Y002161D01*
X019161Y002201D01*
X018631Y002201D01*
X018631Y002225D01*
X018633Y002238D01*
X018640Y002084D02*
X018480Y002084D01*
X018181Y002181D02*
X011181Y002181D01*
X011787Y002877D02*
X012951Y002877D01*
X012853Y003986D02*
X012382Y003986D01*
X012541Y004145D02*
X012803Y004145D01*
X012823Y004304D02*
X012699Y004304D01*
X012181Y004181D02*
X011181Y004181D01*
X010624Y003828D02*
X008738Y003828D01*
X008859Y003986D02*
X010504Y003986D01*
X010461Y004145D02*
X008901Y004145D01*
X008889Y004304D02*
X010474Y004304D01*
X010552Y004462D02*
X008811Y004462D01*
X007750Y001608D02*
X007405Y001608D01*
X007181Y001181D02*
X007681Y000681D01*
X013181Y000681D01*
X013394Y000499D02*
X019666Y000499D01*
X019666Y000657D02*
X019405Y000657D01*
X019622Y000816D02*
X019666Y000816D01*
X015181Y006181D02*
X014181Y005181D01*
X013787Y006365D02*
X011863Y006365D01*
X013419Y006523D02*
X013702Y006523D01*
X013181Y009181D02*
X011181Y009181D01*
X010625Y009535D02*
X010195Y009535D01*
X010354Y009377D02*
X010505Y009377D01*
X011879Y010328D02*
X015046Y010328D01*
X014928Y010962D02*
X011849Y010962D01*
X010514Y010962D02*
X010497Y010962D01*
X008181Y011181D02*
X000681Y011181D01*
X001072Y011597D02*
X007722Y011597D01*
X007749Y011755D02*
X001061Y011755D01*
X000681Y012181D02*
X008181Y012181D01*
X002713Y014609D02*
X001251Y014609D01*
X001345Y015560D02*
X000381Y015560D01*
X000381Y015719D02*
X001131Y015719D01*
X001010Y015877D02*
X000381Y015877D01*
X000381Y016036D02*
X000944Y016036D01*
X000920Y016194D02*
X000381Y016194D01*
X000381Y016353D02*
X000920Y016353D01*
X000968Y016511D02*
X000381Y016511D01*
X000381Y016670D02*
X001034Y016670D01*
X001189Y016828D02*
X000381Y016828D01*
X000381Y016987D02*
X001486Y016987D01*
X001394Y018414D02*
X000381Y018414D01*
X000381Y018572D02*
X001151Y018572D01*
X001018Y018731D02*
X000381Y018731D01*
X000381Y018890D02*
X000952Y018890D01*
X000920Y019048D02*
X000381Y019048D01*
X000381Y019207D02*
X000920Y019207D01*
X000960Y019365D02*
X000381Y019365D01*
X000381Y019524D02*
X001026Y019524D01*
X003681Y018181D02*
X004181Y018181D01*
X004681Y017681D01*
X005681Y017681D01*
X005369Y018097D02*
X004662Y018097D01*
X004503Y018255D02*
X005407Y018255D01*
X005249Y018414D02*
X004345Y018414D01*
X004185Y018572D02*
X005186Y018572D01*
X005186Y018731D02*
X004049Y018731D01*
X004239Y017621D02*
X004346Y017621D01*
X004504Y017463D02*
X004186Y017463D01*
X005681Y018731D02*
X005682Y018731D01*
X005681Y018890D02*
X005682Y018890D01*
X005681Y019048D02*
X005682Y019048D01*
X006114Y018414D02*
X006518Y018414D01*
X006359Y018255D02*
X005955Y018255D01*
X005994Y018097D02*
X006201Y018097D01*
X012949Y018414D02*
X013263Y018414D01*
X013422Y018572D02*
X013046Y018572D01*
X013941Y018572D02*
X014450Y018572D01*
X014292Y018414D02*
X014099Y018414D01*
X014141Y018255D02*
X014241Y018255D01*
X014241Y018097D02*
X014141Y018097D01*
X014089Y017938D02*
X014302Y017938D01*
X014461Y017780D02*
X013930Y017780D01*
X015843Y019524D02*
X018718Y019524D01*
X001798Y009694D02*
X001192Y009694D01*
X001251Y009535D02*
X001640Y009535D01*
X000681Y004181D02*
X001681Y003181D01*
X001748Y003511D02*
X001843Y003511D01*
X001803Y003669D02*
X001589Y003669D01*
X001431Y003828D02*
X001833Y003828D01*
X001952Y003986D02*
X001272Y003986D01*
D25*
X002181Y003681D03*
X001681Y002181D03*
X002181Y006181D03*
X003681Y008681D03*
X002681Y009681D03*
X009181Y010181D03*
X010181Y011181D03*
X012181Y009681D03*
X015181Y010681D03*
X015681Y012681D03*
X015681Y015681D03*
X017681Y016181D03*
X017681Y017181D03*
X015681Y019181D03*
X012681Y018681D03*
X012181Y016681D03*
X012181Y016181D03*
X012181Y015181D03*
X011681Y014681D03*
X010181Y015681D03*
X009681Y014681D03*
X015181Y008181D03*
X017181Y007681D03*
X017181Y008681D03*
X017181Y005681D03*
X017181Y004681D03*
X013181Y004181D03*
X013181Y003181D03*
X012181Y001681D03*
X012181Y005181D03*
X007181Y002681D03*
D26*
X006181Y002181D03*
D27*
X011181Y008181D02*
X009681Y009681D01*
X002681Y009681D01*
X009181Y015181D02*
X012181Y015181D01*
X012181Y016181D02*
X016681Y016181D01*
X012681Y009681D02*
X012181Y009681D01*
X012681Y009681D02*
X013181Y009181D01*
X016181Y007681D02*
X017181Y007681D01*
X017181Y008681D02*
X018681Y008681D01*
X019181Y009181D01*
M02*
