G75*
G70*
%OFA0B0*%
%FSLAX24Y24*%
%IPPOS*%
%LPD*%
%AMOC8*
5,1,8,0,0,1.08239X$1,22.5*
%
%ADD10C,0.0000*%
%ADD11C,0.0520*%
%ADD12OC8,0.0520*%
%ADD13R,0.0740X0.0740*%
%ADD14C,0.0740*%
%ADD15R,0.0650X0.0650*%
%ADD16C,0.0650*%
%ADD17C,0.0515*%
%ADD18C,0.1122*%
%ADD19C,0.0600*%
%ADD20OC8,0.0630*%
%ADD21R,0.0515X0.0515*%
%ADD22R,0.0700X0.0700*%
%ADD23C,0.0700*%
%ADD24C,0.0160*%
%ADD25C,0.0356*%
%ADD26R,0.0356X0.0356*%
%ADD27C,0.0120*%
D10*
X000181Y000181D02*
X000181Y019866D01*
X019866Y019866D01*
X019866Y000181D01*
X000181Y000181D01*
D11*
X007921Y001181D02*
X008441Y001181D01*
X008441Y002181D02*
X007921Y002181D01*
X007921Y003181D02*
X008441Y003181D01*
X008441Y004181D02*
X007921Y004181D01*
X007921Y005181D02*
X008441Y005181D01*
X008441Y006181D02*
X007921Y006181D01*
X007921Y007181D02*
X008441Y007181D01*
X008441Y008181D02*
X007921Y008181D01*
X007921Y009181D02*
X008441Y009181D01*
X008441Y010181D02*
X007921Y010181D01*
X007921Y011181D02*
X008441Y011181D01*
X008441Y012181D02*
X007921Y012181D01*
X007921Y013181D02*
X008441Y013181D01*
X008441Y014181D02*
X007921Y014181D01*
X010921Y014181D02*
X011441Y014181D01*
X011441Y013181D02*
X010921Y013181D01*
X010921Y012181D02*
X011441Y012181D01*
X011441Y011181D02*
X010921Y011181D01*
X010921Y010181D02*
X011441Y010181D01*
X011441Y009181D02*
X010921Y009181D01*
X010921Y008181D02*
X011441Y008181D01*
X011441Y007181D02*
X010921Y007181D01*
X010921Y006181D02*
X011441Y006181D01*
X011441Y005181D02*
X010921Y005181D01*
X010921Y004181D02*
X011441Y004181D01*
X011441Y003181D02*
X010921Y003181D01*
X010921Y002181D02*
X011441Y002181D01*
X011441Y001181D02*
X010921Y001181D01*
D12*
X013681Y001181D03*
X014681Y001181D03*
X016181Y001181D03*
X017181Y001181D03*
X016181Y002681D03*
X016181Y007681D03*
X018181Y009181D03*
X018181Y011681D03*
X018181Y014181D03*
X014681Y018181D03*
X013681Y018181D03*
X013181Y014181D03*
X013181Y011681D03*
X013181Y009181D03*
X007181Y001181D03*
X002181Y001181D03*
D13*
X000681Y004181D03*
X000681Y009181D03*
X000681Y014181D03*
X019181Y015181D03*
X019181Y009181D03*
X019181Y004181D03*
D14*
X019181Y003181D03*
X019181Y002181D03*
X019181Y001181D03*
X019181Y006181D03*
X019181Y007181D03*
X019181Y008181D03*
X019181Y016181D03*
X019181Y017181D03*
X019181Y018181D03*
X019181Y019181D03*
X000681Y013181D03*
X000681Y012181D03*
X000681Y011181D03*
X000681Y008181D03*
X000681Y007181D03*
X000681Y006181D03*
X000681Y003181D03*
X000681Y002181D03*
X000681Y001181D03*
D15*
X014181Y007681D03*
X011181Y017181D03*
D16*
X011181Y018181D03*
X014181Y006681D03*
D17*
X004681Y006181D03*
X004681Y005181D03*
X003781Y016981D03*
X003781Y017681D03*
X003781Y018351D03*
X003161Y018041D03*
X003161Y017351D03*
D18*
X001681Y016244D03*
X001681Y019118D03*
D19*
X008381Y018181D02*
X008981Y018181D01*
X008981Y017181D02*
X008381Y017181D01*
X008381Y016181D02*
X008981Y016181D01*
D20*
X006181Y015681D03*
X005181Y015681D03*
X005181Y013681D03*
X006181Y013681D03*
X005681Y017681D03*
X005681Y018681D03*
D21*
X004681Y007181D03*
D22*
X014181Y003181D03*
X016681Y018181D03*
D23*
X016681Y016181D03*
X014181Y005181D03*
D24*
X013181Y004181D02*
X013181Y003181D01*
X014181Y003181D02*
X014181Y001681D01*
X014681Y001181D01*
X016181Y001181D02*
X016181Y002681D01*
X017181Y001681D02*
X017681Y002181D01*
X019181Y002181D01*
X019181Y003181D02*
X018681Y003181D01*
X017681Y004181D01*
X017681Y011181D01*
X018181Y011681D01*
X016181Y012181D02*
X015681Y012681D01*
X016181Y012181D02*
X016181Y007681D01*
X015181Y008181D02*
X015181Y010681D01*
X013681Y012181D02*
X013181Y011681D01*
X013681Y012181D02*
X013681Y018181D01*
X012681Y018681D02*
X012681Y005181D01*
X012181Y004681D01*
X012181Y001681D01*
X011681Y001181D01*
X011181Y001181D01*
X008181Y001181D02*
X007181Y002181D01*
X007181Y002681D01*
X006181Y002181D02*
X006181Y013681D01*
X006181Y015681D01*
X006181Y016181D01*
X007181Y017181D01*
X008681Y017181D01*
X010181Y015681D02*
X010181Y011181D01*
X009181Y010181D02*
X009181Y014181D01*
X009681Y014681D01*
X011181Y014181D02*
X011681Y014181D01*
X012181Y013681D01*
X012181Y009681D01*
X012181Y009181D02*
X012181Y005181D01*
X012181Y009181D02*
X011181Y010181D01*
X011181Y014181D02*
X011181Y017181D01*
X011681Y016181D02*
X012181Y016681D01*
X011681Y016181D02*
X011681Y014681D01*
X015681Y015681D02*
X015681Y019181D01*
X017681Y018681D02*
X017681Y017181D01*
X017681Y016181D02*
X018181Y015681D01*
X018181Y014181D01*
X019181Y015181D01*
X017681Y018681D02*
X018181Y019181D01*
X019181Y019181D01*
X018181Y009181D02*
X018181Y007681D01*
X018681Y007181D01*
X019181Y007181D01*
X017181Y005681D02*
X017181Y004681D01*
X017181Y001681D02*
X017181Y001181D01*
X004681Y006181D02*
X003681Y006181D01*
X003681Y004181D01*
X001681Y002181D01*
X002181Y003681D02*
X002181Y006181D01*
D25*
X002181Y006181D03*
X002181Y003681D03*
X001681Y002181D03*
X007181Y002681D03*
X012181Y001681D03*
X013181Y003181D03*
X013181Y004181D03*
X012181Y005181D03*
X015181Y008181D03*
X017181Y007681D03*
X017181Y008681D03*
X015181Y010681D03*
X015681Y012681D03*
X015681Y015681D03*
X017681Y016181D03*
X017681Y017181D03*
X015681Y019181D03*
X012681Y018681D03*
X012181Y016681D03*
X012181Y016181D03*
X012181Y015181D03*
X011681Y014681D03*
X010181Y015681D03*
X009681Y014681D03*
X010181Y011181D03*
X009181Y010181D03*
X012181Y009681D03*
X017181Y005681D03*
X017181Y004681D03*
X003681Y008681D03*
X002681Y009681D03*
D26*
X006181Y002181D03*
D27*
X003681Y008681D02*
X003681Y016181D01*
X004056Y016181D01*
X004306Y016431D01*
X004306Y017431D01*
X004056Y017681D01*
X003806Y017681D01*
X003181Y018056D02*
X002806Y017681D01*
X002681Y017681D01*
X002681Y009681D01*
X012181Y015181D02*
X012181Y016181D01*
X017181Y008681D02*
X017181Y007681D01*
M02*
